%TF.GenerationSoftware,KiCad,Pcbnew,7.0.8*%
%TF.CreationDate,2023-10-18T23:35:29+02:00*%
%TF.ProjectId,connector_breakout,636f6e6e-6563-4746-9f72-5f627265616b,rev?*%
%TF.SameCoordinates,Original*%
%TF.FileFunction,Legend,Top*%
%TF.FilePolarity,Positive*%
%FSLAX46Y46*%
G04 Gerber Fmt 4.6, Leading zero omitted, Abs format (unit mm)*
G04 Created by KiCad (PCBNEW 7.0.8) date 2023-10-18 23:35:29*
%MOMM*%
%LPD*%
G01*
G04 APERTURE LIST*
%ADD10C,0.150000*%
%ADD11C,0.120000*%
%ADD12R,4.000000X0.250000*%
%ADD13O,1.700000X1.700000*%
%ADD14R,1.700000X1.700000*%
G04 APERTURE END LIST*
D10*
X138061819Y-62956839D02*
X138252295Y-62956839D01*
X138061819Y-62575887D02*
X138252295Y-62575887D01*
X138395152Y-62242553D02*
X139061819Y-62004458D01*
X139061819Y-62004458D02*
X138395152Y-61766363D01*
X139061819Y-61385410D02*
X138395152Y-61385410D01*
X138061819Y-61385410D02*
X138109438Y-61433029D01*
X138109438Y-61433029D02*
X138157057Y-61385410D01*
X138157057Y-61385410D02*
X138109438Y-61337791D01*
X138109438Y-61337791D02*
X138061819Y-61385410D01*
X138061819Y-61385410D02*
X138157057Y-61385410D01*
X139014200Y-60528268D02*
X139061819Y-60623506D01*
X139061819Y-60623506D02*
X139061819Y-60813982D01*
X139061819Y-60813982D02*
X139014200Y-60909220D01*
X139014200Y-60909220D02*
X138918961Y-60956839D01*
X138918961Y-60956839D02*
X138538009Y-60956839D01*
X138538009Y-60956839D02*
X138442771Y-60909220D01*
X138442771Y-60909220D02*
X138395152Y-60813982D01*
X138395152Y-60813982D02*
X138395152Y-60623506D01*
X138395152Y-60623506D02*
X138442771Y-60528268D01*
X138442771Y-60528268D02*
X138538009Y-60480649D01*
X138538009Y-60480649D02*
X138633247Y-60480649D01*
X138633247Y-60480649D02*
X138728485Y-60956839D01*
X139061819Y-59909220D02*
X139014200Y-60004458D01*
X139014200Y-60004458D02*
X138918961Y-60052077D01*
X138918961Y-60052077D02*
X138061819Y-60052077D01*
X139061819Y-59385410D02*
X139014200Y-59480648D01*
X139014200Y-59480648D02*
X138918961Y-59528267D01*
X138918961Y-59528267D02*
X138061819Y-59528267D01*
X139014200Y-58623505D02*
X139061819Y-58718743D01*
X139061819Y-58718743D02*
X139061819Y-58909219D01*
X139061819Y-58909219D02*
X139014200Y-59004457D01*
X139014200Y-59004457D02*
X138918961Y-59052076D01*
X138918961Y-59052076D02*
X138538009Y-59052076D01*
X138538009Y-59052076D02*
X138442771Y-59004457D01*
X138442771Y-59004457D02*
X138395152Y-58909219D01*
X138395152Y-58909219D02*
X138395152Y-58718743D01*
X138395152Y-58718743D02*
X138442771Y-58623505D01*
X138442771Y-58623505D02*
X138538009Y-58575886D01*
X138538009Y-58575886D02*
X138633247Y-58575886D01*
X138633247Y-58575886D02*
X138728485Y-59052076D01*
X139061819Y-58147314D02*
X138395152Y-58147314D01*
X138061819Y-58147314D02*
X138109438Y-58194933D01*
X138109438Y-58194933D02*
X138157057Y-58147314D01*
X138157057Y-58147314D02*
X138109438Y-58099695D01*
X138109438Y-58099695D02*
X138061819Y-58147314D01*
X138061819Y-58147314D02*
X138157057Y-58147314D01*
X139014200Y-57242553D02*
X139061819Y-57337791D01*
X139061819Y-57337791D02*
X139061819Y-57528267D01*
X139061819Y-57528267D02*
X139014200Y-57623505D01*
X139014200Y-57623505D02*
X138966580Y-57671124D01*
X138966580Y-57671124D02*
X138871342Y-57718743D01*
X138871342Y-57718743D02*
X138585628Y-57718743D01*
X138585628Y-57718743D02*
X138490390Y-57671124D01*
X138490390Y-57671124D02*
X138442771Y-57623505D01*
X138442771Y-57623505D02*
X138395152Y-57528267D01*
X138395152Y-57528267D02*
X138395152Y-57337791D01*
X138395152Y-57337791D02*
X138442771Y-57242553D01*
X139061819Y-56813981D02*
X138061819Y-56813981D01*
X139061819Y-56385410D02*
X138538009Y-56385410D01*
X138538009Y-56385410D02*
X138442771Y-56433029D01*
X138442771Y-56433029D02*
X138395152Y-56528267D01*
X138395152Y-56528267D02*
X138395152Y-56671124D01*
X138395152Y-56671124D02*
X138442771Y-56766362D01*
X138442771Y-56766362D02*
X138490390Y-56813981D01*
X138395152Y-56052076D02*
X138395152Y-55671124D01*
X138061819Y-55909219D02*
X138918961Y-55909219D01*
X138918961Y-55909219D02*
X139014200Y-55861600D01*
X139014200Y-55861600D02*
X139061819Y-55766362D01*
X139061819Y-55766362D02*
X139061819Y-55671124D01*
X139061819Y-54147314D02*
X138061819Y-54147314D01*
X139014200Y-54147314D02*
X139061819Y-54242552D01*
X139061819Y-54242552D02*
X139061819Y-54433028D01*
X139061819Y-54433028D02*
X139014200Y-54528266D01*
X139014200Y-54528266D02*
X138966580Y-54575885D01*
X138966580Y-54575885D02*
X138871342Y-54623504D01*
X138871342Y-54623504D02*
X138585628Y-54623504D01*
X138585628Y-54623504D02*
X138490390Y-54575885D01*
X138490390Y-54575885D02*
X138442771Y-54528266D01*
X138442771Y-54528266D02*
X138395152Y-54433028D01*
X138395152Y-54433028D02*
X138395152Y-54242552D01*
X138395152Y-54242552D02*
X138442771Y-54147314D01*
X139061819Y-53528266D02*
X139014200Y-53623504D01*
X139014200Y-53623504D02*
X138966580Y-53671123D01*
X138966580Y-53671123D02*
X138871342Y-53718742D01*
X138871342Y-53718742D02*
X138585628Y-53718742D01*
X138585628Y-53718742D02*
X138490390Y-53671123D01*
X138490390Y-53671123D02*
X138442771Y-53623504D01*
X138442771Y-53623504D02*
X138395152Y-53528266D01*
X138395152Y-53528266D02*
X138395152Y-53385409D01*
X138395152Y-53385409D02*
X138442771Y-53290171D01*
X138442771Y-53290171D02*
X138490390Y-53242552D01*
X138490390Y-53242552D02*
X138585628Y-53194933D01*
X138585628Y-53194933D02*
X138871342Y-53194933D01*
X138871342Y-53194933D02*
X138966580Y-53242552D01*
X138966580Y-53242552D02*
X139014200Y-53290171D01*
X139014200Y-53290171D02*
X139061819Y-53385409D01*
X139061819Y-53385409D02*
X139061819Y-53528266D01*
X139014200Y-52337790D02*
X139061819Y-52433028D01*
X139061819Y-52433028D02*
X139061819Y-52623504D01*
X139061819Y-52623504D02*
X139014200Y-52718742D01*
X139014200Y-52718742D02*
X138966580Y-52766361D01*
X138966580Y-52766361D02*
X138871342Y-52813980D01*
X138871342Y-52813980D02*
X138585628Y-52813980D01*
X138585628Y-52813980D02*
X138490390Y-52766361D01*
X138490390Y-52766361D02*
X138442771Y-52718742D01*
X138442771Y-52718742D02*
X138395152Y-52623504D01*
X138395152Y-52623504D02*
X138395152Y-52433028D01*
X138395152Y-52433028D02*
X138442771Y-52337790D01*
X139061819Y-51909218D02*
X138061819Y-51909218D01*
X139061819Y-51480647D02*
X138538009Y-51480647D01*
X138538009Y-51480647D02*
X138442771Y-51528266D01*
X138442771Y-51528266D02*
X138395152Y-51623504D01*
X138395152Y-51623504D02*
X138395152Y-51766361D01*
X138395152Y-51766361D02*
X138442771Y-51861599D01*
X138442771Y-51861599D02*
X138490390Y-51909218D01*
X139061819Y-49813980D02*
X138538009Y-49813980D01*
X138538009Y-49813980D02*
X138442771Y-49861599D01*
X138442771Y-49861599D02*
X138395152Y-49956837D01*
X138395152Y-49956837D02*
X138395152Y-50147313D01*
X138395152Y-50147313D02*
X138442771Y-50242551D01*
X139014200Y-49813980D02*
X139061819Y-49909218D01*
X139061819Y-49909218D02*
X139061819Y-50147313D01*
X139061819Y-50147313D02*
X139014200Y-50242551D01*
X139014200Y-50242551D02*
X138918961Y-50290170D01*
X138918961Y-50290170D02*
X138823723Y-50290170D01*
X138823723Y-50290170D02*
X138728485Y-50242551D01*
X138728485Y-50242551D02*
X138680866Y-50147313D01*
X138680866Y-50147313D02*
X138680866Y-49909218D01*
X138680866Y-49909218D02*
X138633247Y-49813980D01*
X138395152Y-48909218D02*
X139061819Y-48909218D01*
X138395152Y-49337789D02*
X138918961Y-49337789D01*
X138918961Y-49337789D02*
X139014200Y-49290170D01*
X139014200Y-49290170D02*
X139061819Y-49194932D01*
X139061819Y-49194932D02*
X139061819Y-49052075D01*
X139061819Y-49052075D02*
X139014200Y-48956837D01*
X139014200Y-48956837D02*
X138966580Y-48909218D01*
X138395152Y-48575884D02*
X138395152Y-48194932D01*
X138061819Y-48433027D02*
X138918961Y-48433027D01*
X138918961Y-48433027D02*
X139014200Y-48385408D01*
X139014200Y-48385408D02*
X139061819Y-48290170D01*
X139061819Y-48290170D02*
X139061819Y-48194932D01*
X139061819Y-47718741D02*
X139014200Y-47813979D01*
X139014200Y-47813979D02*
X138966580Y-47861598D01*
X138966580Y-47861598D02*
X138871342Y-47909217D01*
X138871342Y-47909217D02*
X138585628Y-47909217D01*
X138585628Y-47909217D02*
X138490390Y-47861598D01*
X138490390Y-47861598D02*
X138442771Y-47813979D01*
X138442771Y-47813979D02*
X138395152Y-47718741D01*
X138395152Y-47718741D02*
X138395152Y-47575884D01*
X138395152Y-47575884D02*
X138442771Y-47480646D01*
X138442771Y-47480646D02*
X138490390Y-47433027D01*
X138490390Y-47433027D02*
X138585628Y-47385408D01*
X138585628Y-47385408D02*
X138871342Y-47385408D01*
X138871342Y-47385408D02*
X138966580Y-47433027D01*
X138966580Y-47433027D02*
X139014200Y-47480646D01*
X139014200Y-47480646D02*
X139061819Y-47575884D01*
X139061819Y-47575884D02*
X139061819Y-47718741D01*
X139061819Y-46956836D02*
X138395152Y-46956836D01*
X138490390Y-46956836D02*
X138442771Y-46909217D01*
X138442771Y-46909217D02*
X138395152Y-46813979D01*
X138395152Y-46813979D02*
X138395152Y-46671122D01*
X138395152Y-46671122D02*
X138442771Y-46575884D01*
X138442771Y-46575884D02*
X138538009Y-46528265D01*
X138538009Y-46528265D02*
X139061819Y-46528265D01*
X138538009Y-46528265D02*
X138442771Y-46480646D01*
X138442771Y-46480646D02*
X138395152Y-46385408D01*
X138395152Y-46385408D02*
X138395152Y-46242551D01*
X138395152Y-46242551D02*
X138442771Y-46147312D01*
X138442771Y-46147312D02*
X138538009Y-46099693D01*
X138538009Y-46099693D02*
X139061819Y-46099693D01*
X139014200Y-45242551D02*
X139061819Y-45337789D01*
X139061819Y-45337789D02*
X139061819Y-45528265D01*
X139061819Y-45528265D02*
X139014200Y-45623503D01*
X139014200Y-45623503D02*
X138918961Y-45671122D01*
X138918961Y-45671122D02*
X138538009Y-45671122D01*
X138538009Y-45671122D02*
X138442771Y-45623503D01*
X138442771Y-45623503D02*
X138395152Y-45528265D01*
X138395152Y-45528265D02*
X138395152Y-45337789D01*
X138395152Y-45337789D02*
X138442771Y-45242551D01*
X138442771Y-45242551D02*
X138538009Y-45194932D01*
X138538009Y-45194932D02*
X138633247Y-45194932D01*
X138633247Y-45194932D02*
X138728485Y-45671122D01*
X139061819Y-44766360D02*
X138395152Y-44766360D01*
X138585628Y-44766360D02*
X138490390Y-44718741D01*
X138490390Y-44718741D02*
X138442771Y-44671122D01*
X138442771Y-44671122D02*
X138395152Y-44575884D01*
X138395152Y-44575884D02*
X138395152Y-44480646D01*
X138395152Y-43718741D02*
X139204676Y-43718741D01*
X139204676Y-43718741D02*
X139299914Y-43766360D01*
X139299914Y-43766360D02*
X139347533Y-43813979D01*
X139347533Y-43813979D02*
X139395152Y-43909217D01*
X139395152Y-43909217D02*
X139395152Y-44052074D01*
X139395152Y-44052074D02*
X139347533Y-44147312D01*
X139014200Y-43718741D02*
X139061819Y-43813979D01*
X139061819Y-43813979D02*
X139061819Y-44004455D01*
X139061819Y-44004455D02*
X139014200Y-44099693D01*
X139014200Y-44099693D02*
X138966580Y-44147312D01*
X138966580Y-44147312D02*
X138871342Y-44194931D01*
X138871342Y-44194931D02*
X138585628Y-44194931D01*
X138585628Y-44194931D02*
X138490390Y-44147312D01*
X138490390Y-44147312D02*
X138442771Y-44099693D01*
X138442771Y-44099693D02*
X138395152Y-44004455D01*
X138395152Y-44004455D02*
X138395152Y-43813979D01*
X138395152Y-43813979D02*
X138442771Y-43718741D01*
X139014200Y-42861598D02*
X139061819Y-42956836D01*
X139061819Y-42956836D02*
X139061819Y-43147312D01*
X139061819Y-43147312D02*
X139014200Y-43242550D01*
X139014200Y-43242550D02*
X138918961Y-43290169D01*
X138918961Y-43290169D02*
X138538009Y-43290169D01*
X138538009Y-43290169D02*
X138442771Y-43242550D01*
X138442771Y-43242550D02*
X138395152Y-43147312D01*
X138395152Y-43147312D02*
X138395152Y-42956836D01*
X138395152Y-42956836D02*
X138442771Y-42861598D01*
X138442771Y-42861598D02*
X138538009Y-42813979D01*
X138538009Y-42813979D02*
X138633247Y-42813979D01*
X138633247Y-42813979D02*
X138728485Y-43290169D01*
X138966580Y-42242550D02*
X139014200Y-42194931D01*
X139014200Y-42194931D02*
X139061819Y-42242550D01*
X139061819Y-42242550D02*
X139014200Y-42290169D01*
X139014200Y-42290169D02*
X138966580Y-42242550D01*
X138966580Y-42242550D02*
X139061819Y-42242550D01*
X138109438Y-42433026D02*
X138061819Y-42337788D01*
X138061819Y-42337788D02*
X138061819Y-42099693D01*
X138061819Y-42099693D02*
X138109438Y-42004455D01*
X138109438Y-42004455D02*
X138204676Y-41956836D01*
X138204676Y-41956836D02*
X138299914Y-41956836D01*
X138299914Y-41956836D02*
X138395152Y-42004455D01*
X138395152Y-42004455D02*
X138442771Y-42052074D01*
X138442771Y-42052074D02*
X138490390Y-42147312D01*
X138490390Y-42147312D02*
X138538009Y-42194931D01*
X138538009Y-42194931D02*
X138633247Y-42242550D01*
X138633247Y-42242550D02*
X138680866Y-42242550D01*
X138061819Y-41575883D02*
X138252295Y-41575883D01*
X138061819Y-41194931D02*
X138252295Y-41194931D01*
D11*
%TO.C,J2*%
X129060000Y-81082000D02*
X129860000Y-80282000D01*
X129060000Y-91032000D02*
X129060000Y-81082000D01*
X129860000Y-80282000D02*
X139660000Y-80282000D01*
X139660000Y-80282000D02*
X139660000Y-91032000D01*
X139660000Y-91032000D02*
X129060000Y-91032000D01*
%TD*%
%LPC*%
D12*
%TO.C,J2*%
X131560000Y-80907000D03*
X137160000Y-80907000D03*
X131560000Y-81407000D03*
X137160000Y-81407000D03*
X131560000Y-81907000D03*
X137160000Y-81907000D03*
X131560000Y-82407000D03*
X137160000Y-82407000D03*
X131560000Y-82907000D03*
X137160000Y-82907000D03*
X131560000Y-83407000D03*
X137160000Y-83407000D03*
X131560000Y-83907000D03*
X137160000Y-83907000D03*
X131560000Y-84407000D03*
X137160000Y-84407000D03*
X131560000Y-84907000D03*
X137160000Y-84907000D03*
X131560000Y-85407000D03*
X137160000Y-85407000D03*
X131560000Y-85907000D03*
X137160000Y-85907000D03*
X131560000Y-86407000D03*
X137160000Y-86407000D03*
X131560000Y-86907000D03*
X137160000Y-86907000D03*
X131560000Y-87407000D03*
X137160000Y-87407000D03*
X131560000Y-87907000D03*
X137160000Y-87907000D03*
X131560000Y-88407000D03*
X137160000Y-88407000D03*
X131560000Y-88907000D03*
X137160000Y-88907000D03*
X131560000Y-89407000D03*
X137160000Y-89407000D03*
X131560000Y-89907000D03*
X137160000Y-89907000D03*
X131560000Y-90407000D03*
X137160000Y-90407000D03*
%TD*%
D13*
%TO.C,J1*%
X135636000Y-29823936D03*
X133096000Y-29823936D03*
X135636000Y-32363936D03*
X133096000Y-32363936D03*
X135636000Y-34903936D03*
X133096000Y-34903936D03*
X135636000Y-37443936D03*
X133096000Y-37443936D03*
X135636000Y-39983936D03*
X133096000Y-39983936D03*
X135636000Y-42523936D03*
X133096000Y-42523936D03*
X135636000Y-45063936D03*
X133096000Y-45063936D03*
X135636000Y-47603936D03*
X133096000Y-47603936D03*
X135636000Y-50143936D03*
X133096000Y-50143936D03*
X135636000Y-52683936D03*
X133096000Y-52683936D03*
X135636000Y-55223936D03*
X133096000Y-55223936D03*
X135636000Y-57763936D03*
X133096000Y-57763936D03*
X135636000Y-60303936D03*
X133096000Y-60303936D03*
X135636000Y-62843936D03*
X133096000Y-62843936D03*
X135636000Y-65383936D03*
X133096000Y-65383936D03*
X135636000Y-67923936D03*
X133096000Y-67923936D03*
X135636000Y-70463936D03*
X133096000Y-70463936D03*
X135636000Y-73003936D03*
X133096000Y-73003936D03*
X135636000Y-75543936D03*
X133096000Y-75543936D03*
X135636000Y-78083936D03*
D14*
X133096000Y-78083936D03*
%TD*%
%LPD*%
M02*
