%TF.GenerationSoftware,KiCad,Pcbnew,7.0.8*%
%TF.CreationDate,2023-10-18T23:35:29+02:00*%
%TF.ProjectId,connector_breakout,636f6e6e-6563-4746-9f72-5f627265616b,rev?*%
%TF.SameCoordinates,Original*%
%TF.FileFunction,Paste,Top*%
%TF.FilePolarity,Positive*%
%FSLAX46Y46*%
G04 Gerber Fmt 4.6, Leading zero omitted, Abs format (unit mm)*
G04 Created by KiCad (PCBNEW 7.0.8) date 2023-10-18 23:35:29*
%MOMM*%
%LPD*%
G01*
G04 APERTURE LIST*
%ADD10R,4.000000X0.250000*%
G04 APERTURE END LIST*
D10*
%TO.C,J2*%
X131560000Y-80907000D03*
X137160000Y-80907000D03*
X131560000Y-81407000D03*
X137160000Y-81407000D03*
X131560000Y-81907000D03*
X137160000Y-81907000D03*
X131560000Y-82407000D03*
X137160000Y-82407000D03*
X131560000Y-82907000D03*
X137160000Y-82907000D03*
X131560000Y-83407000D03*
X137160000Y-83407000D03*
X131560000Y-83907000D03*
X137160000Y-83907000D03*
X131560000Y-84407000D03*
X137160000Y-84407000D03*
X131560000Y-84907000D03*
X137160000Y-84907000D03*
X131560000Y-85407000D03*
X137160000Y-85407000D03*
X131560000Y-85907000D03*
X137160000Y-85907000D03*
X131560000Y-86407000D03*
X137160000Y-86407000D03*
X131560000Y-86907000D03*
X137160000Y-86907000D03*
X131560000Y-87407000D03*
X137160000Y-87407000D03*
X131560000Y-87907000D03*
X137160000Y-87907000D03*
X131560000Y-88407000D03*
X137160000Y-88407000D03*
X131560000Y-88907000D03*
X137160000Y-88907000D03*
X131560000Y-89407000D03*
X137160000Y-89407000D03*
X131560000Y-89907000D03*
X137160000Y-89907000D03*
X131560000Y-90407000D03*
X137160000Y-90407000D03*
%TD*%
M02*
