M48
; DRILL file {KiCad 7.0.8} date 2023 October 18, Wednesday 23:36:33
; FORMAT={-:-/ absolute / metric / decimal}
; #@! TF.CreationDate,2023-10-18T23:36:33+02:00
; #@! TF.GenerationSoftware,Kicad,Pcbnew,7.0.8
; #@! TF.FileFunction,Plated,1,2,PTH
FMAT,2
METRIC
; #@! TA.AperFunction,Plated,PTH,ViaDrill
T1C0.150
; #@! TA.AperFunction,Plated,PTH,ComponentDrill
T2C1.000
%
G90
G05
T1
X132.588Y-79.883
X133.985Y-83.312
X133.985Y-83.82
X133.985Y-84.328
X133.985Y-84.836
X133.985Y-85.344
X133.985Y-85.827
X133.985Y-86.306
X133.985Y-87.322
X133.985Y-87.8
X133.985Y-88.338
X133.985Y-89.329
X133.985Y-89.807
X133.985Y-90.297
X133.985Y-86.843
X133.985Y-88.816
X134.747Y-83.312
X134.747Y-83.82
X134.747Y-84.328
X134.747Y-84.836
X134.747Y-85.344
X134.747Y-85.852
X134.747Y-86.36
X134.747Y-86.868
X134.747Y-87.376
X134.747Y-87.884
X134.747Y-88.392
X134.747Y-88.9
X134.747Y-89.408
X134.747Y-89.916
X134.747Y-90.424
X136.017Y-79.883
T2
X133.096Y-29.824
X133.096Y-32.364
X133.096Y-34.904
X133.096Y-37.444
X133.096Y-39.984
X133.096Y-42.524
X133.096Y-45.064
X133.096Y-47.604
X133.096Y-50.144
X133.096Y-52.684
X133.096Y-55.224
X133.096Y-57.764
X133.096Y-60.304
X133.096Y-62.844
X133.096Y-65.384
X133.096Y-67.924
X133.096Y-70.464
X133.096Y-73.004
X133.096Y-75.544
X133.096Y-78.084
X135.636Y-29.824
X135.636Y-32.364
X135.636Y-34.904
X135.636Y-37.444
X135.636Y-39.984
X135.636Y-42.524
X135.636Y-45.064
X135.636Y-47.604
X135.636Y-50.144
X135.636Y-52.684
X135.636Y-55.224
X135.636Y-57.764
X135.636Y-60.304
X135.636Y-62.844
X135.636Y-65.384
X135.636Y-67.924
X135.636Y-70.464
X135.636Y-73.004
X135.636Y-75.544
X135.636Y-78.084
T0
M30
