%TF.GenerationSoftware,KiCad,Pcbnew,7.0.8*%
%TF.CreationDate,2023-10-18T23:35:29+02:00*%
%TF.ProjectId,connector_breakout,636f6e6e-6563-4746-9f72-5f627265616b,rev?*%
%TF.SameCoordinates,Original*%
%TF.FileFunction,Soldermask,Top*%
%TF.FilePolarity,Negative*%
%FSLAX46Y46*%
G04 Gerber Fmt 4.6, Leading zero omitted, Abs format (unit mm)*
G04 Created by KiCad (PCBNEW 7.0.8) date 2023-10-18 23:35:29*
%MOMM*%
%LPD*%
G01*
G04 APERTURE LIST*
%ADD10R,4.000000X0.250000*%
%ADD11O,1.700000X1.700000*%
%ADD12R,1.700000X1.700000*%
G04 APERTURE END LIST*
D10*
%TO.C,J2*%
X131560000Y-80907000D03*
X137160000Y-80907000D03*
X131560000Y-81407000D03*
X137160000Y-81407000D03*
X131560000Y-81907000D03*
X137160000Y-81907000D03*
X131560000Y-82407000D03*
X137160000Y-82407000D03*
X131560000Y-82907000D03*
X137160000Y-82907000D03*
X131560000Y-83407000D03*
X137160000Y-83407000D03*
X131560000Y-83907000D03*
X137160000Y-83907000D03*
X131560000Y-84407000D03*
X137160000Y-84407000D03*
X131560000Y-84907000D03*
X137160000Y-84907000D03*
X131560000Y-85407000D03*
X137160000Y-85407000D03*
X131560000Y-85907000D03*
X137160000Y-85907000D03*
X131560000Y-86407000D03*
X137160000Y-86407000D03*
X131560000Y-86907000D03*
X137160000Y-86907000D03*
X131560000Y-87407000D03*
X137160000Y-87407000D03*
X131560000Y-87907000D03*
X137160000Y-87907000D03*
X131560000Y-88407000D03*
X137160000Y-88407000D03*
X131560000Y-88907000D03*
X137160000Y-88907000D03*
X131560000Y-89407000D03*
X137160000Y-89407000D03*
X131560000Y-89907000D03*
X137160000Y-89907000D03*
X131560000Y-90407000D03*
X137160000Y-90407000D03*
%TD*%
D11*
%TO.C,J1*%
X135636000Y-29823936D03*
X133096000Y-29823936D03*
X135636000Y-32363936D03*
X133096000Y-32363936D03*
X135636000Y-34903936D03*
X133096000Y-34903936D03*
X135636000Y-37443936D03*
X133096000Y-37443936D03*
X135636000Y-39983936D03*
X133096000Y-39983936D03*
X135636000Y-42523936D03*
X133096000Y-42523936D03*
X135636000Y-45063936D03*
X133096000Y-45063936D03*
X135636000Y-47603936D03*
X133096000Y-47603936D03*
X135636000Y-50143936D03*
X133096000Y-50143936D03*
X135636000Y-52683936D03*
X133096000Y-52683936D03*
X135636000Y-55223936D03*
X133096000Y-55223936D03*
X135636000Y-57763936D03*
X133096000Y-57763936D03*
X135636000Y-60303936D03*
X133096000Y-60303936D03*
X135636000Y-62843936D03*
X133096000Y-62843936D03*
X135636000Y-65383936D03*
X133096000Y-65383936D03*
X135636000Y-67923936D03*
X133096000Y-67923936D03*
X135636000Y-70463936D03*
X133096000Y-70463936D03*
X135636000Y-73003936D03*
X133096000Y-73003936D03*
X135636000Y-75543936D03*
X133096000Y-75543936D03*
X135636000Y-78083936D03*
D12*
X133096000Y-78083936D03*
%TD*%
M02*
