%TF.GenerationSoftware,KiCad,Pcbnew,7.0.8*%
%TF.CreationDate,2023-10-18T23:36:33+02:00*%
%TF.ProjectId,connector_breakout,636f6e6e-6563-4746-9f72-5f627265616b,rev?*%
%TF.SameCoordinates,Original*%
%TF.FileFunction,Drillmap*%
%TF.FilePolarity,Positive*%
%FSLAX45Y45*%
G04 Gerber Fmt 4.5, Leading zero omitted, Abs format (unit mm)*
G04 Created by KiCad (PCBNEW 7.0.8) date 2023-10-18 23:36:33*
%MOMM*%
%LPD*%
G01*
G04 APERTURE LIST*
%ADD10C,0.100000*%
%ADD11C,0.200000*%
G04 APERTURE END LIST*
D10*
X14020800Y-9169400D02*
X12852400Y-9169400D01*
X12877800Y-2743200D01*
X14042163Y-2742972D01*
X14020800Y-9169400D01*
D11*
X13108177Y-9485884D02*
X13108177Y-9285884D01*
X13108177Y-9285884D02*
X13155796Y-9285884D01*
X13155796Y-9285884D02*
X13184367Y-9295408D01*
X13184367Y-9295408D02*
X13203415Y-9314455D01*
X13203415Y-9314455D02*
X13212939Y-9333503D01*
X13212939Y-9333503D02*
X13222462Y-9371598D01*
X13222462Y-9371598D02*
X13222462Y-9400170D01*
X13222462Y-9400170D02*
X13212939Y-9438265D01*
X13212939Y-9438265D02*
X13203415Y-9457312D01*
X13203415Y-9457312D02*
X13184367Y-9476360D01*
X13184367Y-9476360D02*
X13155796Y-9485884D01*
X13155796Y-9485884D02*
X13108177Y-9485884D01*
X13308177Y-9485884D02*
X13308177Y-9352550D01*
X13308177Y-9390646D02*
X13317701Y-9371598D01*
X13317701Y-9371598D02*
X13327224Y-9362074D01*
X13327224Y-9362074D02*
X13346272Y-9352550D01*
X13346272Y-9352550D02*
X13365320Y-9352550D01*
X13431986Y-9485884D02*
X13431986Y-9352550D01*
X13431986Y-9285884D02*
X13422462Y-9295408D01*
X13422462Y-9295408D02*
X13431986Y-9304931D01*
X13431986Y-9304931D02*
X13441510Y-9295408D01*
X13441510Y-9295408D02*
X13431986Y-9285884D01*
X13431986Y-9285884D02*
X13431986Y-9304931D01*
X13555796Y-9485884D02*
X13536748Y-9476360D01*
X13536748Y-9476360D02*
X13527224Y-9457312D01*
X13527224Y-9457312D02*
X13527224Y-9285884D01*
X13660558Y-9485884D02*
X13641510Y-9476360D01*
X13641510Y-9476360D02*
X13631986Y-9457312D01*
X13631986Y-9457312D02*
X13631986Y-9285884D01*
X13889129Y-9485884D02*
X13889129Y-9285884D01*
X13889129Y-9285884D02*
X13955796Y-9428741D01*
X13955796Y-9428741D02*
X14022462Y-9285884D01*
X14022462Y-9285884D02*
X14022462Y-9485884D01*
X14203415Y-9485884D02*
X14203415Y-9381122D01*
X14203415Y-9381122D02*
X14193891Y-9362074D01*
X14193891Y-9362074D02*
X14174843Y-9352550D01*
X14174843Y-9352550D02*
X14136748Y-9352550D01*
X14136748Y-9352550D02*
X14117701Y-9362074D01*
X14203415Y-9476360D02*
X14184367Y-9485884D01*
X14184367Y-9485884D02*
X14136748Y-9485884D01*
X14136748Y-9485884D02*
X14117701Y-9476360D01*
X14117701Y-9476360D02*
X14108177Y-9457312D01*
X14108177Y-9457312D02*
X14108177Y-9438265D01*
X14108177Y-9438265D02*
X14117701Y-9419217D01*
X14117701Y-9419217D02*
X14136748Y-9409693D01*
X14136748Y-9409693D02*
X14184367Y-9409693D01*
X14184367Y-9409693D02*
X14203415Y-9400170D01*
X14298653Y-9352550D02*
X14298653Y-9552550D01*
X14298653Y-9362074D02*
X14317701Y-9352550D01*
X14317701Y-9352550D02*
X14355796Y-9352550D01*
X14355796Y-9352550D02*
X14374843Y-9362074D01*
X14374843Y-9362074D02*
X14384367Y-9371598D01*
X14384367Y-9371598D02*
X14393891Y-9390646D01*
X14393891Y-9390646D02*
X14393891Y-9447789D01*
X14393891Y-9447789D02*
X14384367Y-9466836D01*
X14384367Y-9466836D02*
X14374843Y-9476360D01*
X14374843Y-9476360D02*
X14355796Y-9485884D01*
X14355796Y-9485884D02*
X14317701Y-9485884D01*
X14317701Y-9485884D02*
X14298653Y-9476360D01*
X14479605Y-9466836D02*
X14489129Y-9476360D01*
X14489129Y-9476360D02*
X14479605Y-9485884D01*
X14479605Y-9485884D02*
X14470082Y-9476360D01*
X14470082Y-9476360D02*
X14479605Y-9466836D01*
X14479605Y-9466836D02*
X14479605Y-9485884D01*
X14479605Y-9362074D02*
X14489129Y-9371598D01*
X14489129Y-9371598D02*
X14479605Y-9381122D01*
X14479605Y-9381122D02*
X14470082Y-9371598D01*
X14470082Y-9371598D02*
X14479605Y-9362074D01*
X14479605Y-9362074D02*
X14479605Y-9381122D01*
M02*
