%TF.GenerationSoftware,KiCad,Pcbnew,7.0.8*%
%TF.CreationDate,2023-10-18T23:36:33+02:00*%
%TF.ProjectId,connector_breakout,636f6e6e-6563-4746-9f72-5f627265616b,rev?*%
%TF.SameCoordinates,Original*%
%TF.FileFunction,Drillmap*%
%TF.FilePolarity,Positive*%
%FSLAX45Y45*%
G04 Gerber Fmt 4.5, Leading zero omitted, Abs format (unit mm)*
G04 Created by KiCad (PCBNEW 7.0.8) date 2023-10-18 23:36:33*
%MOMM*%
%LPD*%
G01*
G04 APERTURE LIST*
%ADD10C,0.100000*%
%ADD11C,0.200000*%
%ADD12C,0.015000*%
G04 APERTURE END LIST*
D10*
X14020800Y-9169400D02*
X12852400Y-9169400D01*
X12877800Y-2743200D01*
X14042163Y-2742972D01*
X14020800Y-9169400D01*
D11*
D12*
X13251300Y-7980800D02*
X13266300Y-7995800D01*
X13266300Y-7980800D02*
X13251300Y-7995800D01*
X13391000Y-8323700D02*
X13406000Y-8338700D01*
X13406000Y-8323700D02*
X13391000Y-8338700D01*
X13391000Y-8374500D02*
X13406000Y-8389500D01*
X13406000Y-8374500D02*
X13391000Y-8389500D01*
X13391000Y-8425300D02*
X13406000Y-8440300D01*
X13406000Y-8425300D02*
X13391000Y-8440300D01*
X13391000Y-8476100D02*
X13406000Y-8491100D01*
X13406000Y-8476100D02*
X13391000Y-8491100D01*
X13391000Y-8526900D02*
X13406000Y-8541900D01*
X13406000Y-8526900D02*
X13391000Y-8541900D01*
X13391000Y-8575200D02*
X13406000Y-8590200D01*
X13406000Y-8575200D02*
X13391000Y-8590200D01*
X13391000Y-8623050D02*
X13406000Y-8638050D01*
X13406000Y-8623050D02*
X13391000Y-8638050D01*
X13391000Y-8724650D02*
X13406000Y-8739650D01*
X13406000Y-8724650D02*
X13391000Y-8739650D01*
X13391000Y-8772501D02*
X13406000Y-8787501D01*
X13406000Y-8772501D02*
X13391000Y-8787501D01*
X13391000Y-8826250D02*
X13406000Y-8841250D01*
X13406000Y-8826250D02*
X13391000Y-8841250D01*
X13391000Y-8925350D02*
X13406000Y-8940350D01*
X13406000Y-8925350D02*
X13391000Y-8940350D01*
X13391000Y-8973201D02*
X13406000Y-8988201D01*
X13406000Y-8973201D02*
X13391000Y-8988201D01*
X13391000Y-9022200D02*
X13406000Y-9037200D01*
X13406000Y-9022200D02*
X13391000Y-9037200D01*
X13391001Y-8676800D02*
X13406001Y-8691800D01*
X13406001Y-8676800D02*
X13391001Y-8691800D01*
X13391001Y-8874101D02*
X13406001Y-8889101D01*
X13406001Y-8874101D02*
X13391001Y-8889101D01*
X13467200Y-8323700D02*
X13482200Y-8338700D01*
X13482200Y-8323700D02*
X13467200Y-8338700D01*
X13467200Y-8374500D02*
X13482200Y-8389500D01*
X13482200Y-8374500D02*
X13467200Y-8389500D01*
X13467200Y-8425300D02*
X13482200Y-8440300D01*
X13482200Y-8425300D02*
X13467200Y-8440300D01*
X13467200Y-8476100D02*
X13482200Y-8491100D01*
X13482200Y-8476100D02*
X13467200Y-8491100D01*
X13467200Y-8526900D02*
X13482200Y-8541900D01*
X13482200Y-8526900D02*
X13467200Y-8541900D01*
X13467200Y-8577700D02*
X13482200Y-8592700D01*
X13482200Y-8577700D02*
X13467200Y-8592700D01*
X13467200Y-8628500D02*
X13482200Y-8643500D01*
X13482200Y-8628500D02*
X13467200Y-8643500D01*
X13467200Y-8679300D02*
X13482200Y-8694300D01*
X13482200Y-8679300D02*
X13467200Y-8694300D01*
X13467200Y-8730100D02*
X13482200Y-8745100D01*
X13482200Y-8730100D02*
X13467200Y-8745100D01*
X13467200Y-8780900D02*
X13482200Y-8795900D01*
X13482200Y-8780900D02*
X13467200Y-8795900D01*
X13467200Y-8831700D02*
X13482200Y-8846700D01*
X13482200Y-8831700D02*
X13467200Y-8846700D01*
X13467200Y-8882500D02*
X13482200Y-8897500D01*
X13482200Y-8882500D02*
X13467200Y-8897500D01*
X13467200Y-8933300D02*
X13482200Y-8948300D01*
X13482200Y-8933300D02*
X13467200Y-8948300D01*
X13467200Y-8984100D02*
X13482200Y-8999100D01*
X13482200Y-8984100D02*
X13467200Y-8999100D01*
X13467200Y-9034900D02*
X13482200Y-9049900D01*
X13482200Y-9034900D02*
X13467200Y-9049900D01*
X13594200Y-7980800D02*
X13609200Y-7995800D01*
X13609200Y-7980800D02*
X13594200Y-7995800D01*
D10*
X13359600Y-2982394D02*
G75*
G03*
X13359600Y-2982394I-50000J0D01*
G01*
X13359600Y-3236394D02*
G75*
G03*
X13359600Y-3236394I-50000J0D01*
G01*
X13359600Y-3490394D02*
G75*
G03*
X13359600Y-3490394I-50000J0D01*
G01*
X13359600Y-3744394D02*
G75*
G03*
X13359600Y-3744394I-50000J0D01*
G01*
X13359600Y-3998394D02*
G75*
G03*
X13359600Y-3998394I-50000J0D01*
G01*
X13359600Y-4252394D02*
G75*
G03*
X13359600Y-4252394I-50000J0D01*
G01*
X13359600Y-4506394D02*
G75*
G03*
X13359600Y-4506394I-50000J0D01*
G01*
X13359600Y-4760394D02*
G75*
G03*
X13359600Y-4760394I-50000J0D01*
G01*
X13359600Y-5014394D02*
G75*
G03*
X13359600Y-5014394I-50000J0D01*
G01*
X13359600Y-5268394D02*
G75*
G03*
X13359600Y-5268394I-50000J0D01*
G01*
X13359600Y-5522394D02*
G75*
G03*
X13359600Y-5522394I-50000J0D01*
G01*
X13359600Y-5776394D02*
G75*
G03*
X13359600Y-5776394I-50000J0D01*
G01*
X13359600Y-6030394D02*
G75*
G03*
X13359600Y-6030394I-50000J0D01*
G01*
X13359600Y-6284394D02*
G75*
G03*
X13359600Y-6284394I-50000J0D01*
G01*
X13359600Y-6538394D02*
G75*
G03*
X13359600Y-6538394I-50000J0D01*
G01*
X13359600Y-6792394D02*
G75*
G03*
X13359600Y-6792394I-50000J0D01*
G01*
X13359600Y-7046394D02*
G75*
G03*
X13359600Y-7046394I-50000J0D01*
G01*
X13359600Y-7300394D02*
G75*
G03*
X13359600Y-7300394I-50000J0D01*
G01*
X13359600Y-7554394D02*
G75*
G03*
X13359600Y-7554394I-50000J0D01*
G01*
X13359600Y-7808394D02*
G75*
G03*
X13359600Y-7808394I-50000J0D01*
G01*
X13613600Y-2982394D02*
G75*
G03*
X13613600Y-2982394I-50000J0D01*
G01*
X13613600Y-3236394D02*
G75*
G03*
X13613600Y-3236394I-50000J0D01*
G01*
X13613600Y-3490394D02*
G75*
G03*
X13613600Y-3490394I-50000J0D01*
G01*
X13613600Y-3744394D02*
G75*
G03*
X13613600Y-3744394I-50000J0D01*
G01*
X13613600Y-3998394D02*
G75*
G03*
X13613600Y-3998394I-50000J0D01*
G01*
X13613600Y-4252394D02*
G75*
G03*
X13613600Y-4252394I-50000J0D01*
G01*
X13613600Y-4506394D02*
G75*
G03*
X13613600Y-4506394I-50000J0D01*
G01*
X13613600Y-4760394D02*
G75*
G03*
X13613600Y-4760394I-50000J0D01*
G01*
X13613600Y-5014394D02*
G75*
G03*
X13613600Y-5014394I-50000J0D01*
G01*
X13613600Y-5268394D02*
G75*
G03*
X13613600Y-5268394I-50000J0D01*
G01*
X13613600Y-5522394D02*
G75*
G03*
X13613600Y-5522394I-50000J0D01*
G01*
X13613600Y-5776394D02*
G75*
G03*
X13613600Y-5776394I-50000J0D01*
G01*
X13613600Y-6030394D02*
G75*
G03*
X13613600Y-6030394I-50000J0D01*
G01*
X13613600Y-6284394D02*
G75*
G03*
X13613600Y-6284394I-50000J0D01*
G01*
X13613600Y-6538394D02*
G75*
G03*
X13613600Y-6538394I-50000J0D01*
G01*
X13613600Y-6792394D02*
G75*
G03*
X13613600Y-6792394I-50000J0D01*
G01*
X13613600Y-7046394D02*
G75*
G03*
X13613600Y-7046394I-50000J0D01*
G01*
X13613600Y-7300394D02*
G75*
G03*
X13613600Y-7300394I-50000J0D01*
G01*
X13613600Y-7554394D02*
G75*
G03*
X13613600Y-7554394I-50000J0D01*
G01*
X13613600Y-7808394D02*
G75*
G03*
X13613600Y-7808394I-50000J0D01*
G01*
D11*
X13108177Y-9485884D02*
X13108177Y-9285884D01*
X13108177Y-9285884D02*
X13155796Y-9285884D01*
X13155796Y-9285884D02*
X13184367Y-9295408D01*
X13184367Y-9295408D02*
X13203415Y-9314455D01*
X13203415Y-9314455D02*
X13212939Y-9333503D01*
X13212939Y-9333503D02*
X13222462Y-9371598D01*
X13222462Y-9371598D02*
X13222462Y-9400170D01*
X13222462Y-9400170D02*
X13212939Y-9438265D01*
X13212939Y-9438265D02*
X13203415Y-9457312D01*
X13203415Y-9457312D02*
X13184367Y-9476360D01*
X13184367Y-9476360D02*
X13155796Y-9485884D01*
X13155796Y-9485884D02*
X13108177Y-9485884D01*
X13308177Y-9485884D02*
X13308177Y-9352550D01*
X13308177Y-9390646D02*
X13317701Y-9371598D01*
X13317701Y-9371598D02*
X13327224Y-9362074D01*
X13327224Y-9362074D02*
X13346272Y-9352550D01*
X13346272Y-9352550D02*
X13365320Y-9352550D01*
X13431986Y-9485884D02*
X13431986Y-9352550D01*
X13431986Y-9285884D02*
X13422462Y-9295408D01*
X13422462Y-9295408D02*
X13431986Y-9304931D01*
X13431986Y-9304931D02*
X13441510Y-9295408D01*
X13441510Y-9295408D02*
X13431986Y-9285884D01*
X13431986Y-9285884D02*
X13431986Y-9304931D01*
X13555796Y-9485884D02*
X13536748Y-9476360D01*
X13536748Y-9476360D02*
X13527224Y-9457312D01*
X13527224Y-9457312D02*
X13527224Y-9285884D01*
X13660558Y-9485884D02*
X13641510Y-9476360D01*
X13641510Y-9476360D02*
X13631986Y-9457312D01*
X13631986Y-9457312D02*
X13631986Y-9285884D01*
X13889129Y-9485884D02*
X13889129Y-9285884D01*
X13889129Y-9285884D02*
X13955796Y-9428741D01*
X13955796Y-9428741D02*
X14022462Y-9285884D01*
X14022462Y-9285884D02*
X14022462Y-9485884D01*
X14203415Y-9485884D02*
X14203415Y-9381122D01*
X14203415Y-9381122D02*
X14193891Y-9362074D01*
X14193891Y-9362074D02*
X14174843Y-9352550D01*
X14174843Y-9352550D02*
X14136748Y-9352550D01*
X14136748Y-9352550D02*
X14117701Y-9362074D01*
X14203415Y-9476360D02*
X14184367Y-9485884D01*
X14184367Y-9485884D02*
X14136748Y-9485884D01*
X14136748Y-9485884D02*
X14117701Y-9476360D01*
X14117701Y-9476360D02*
X14108177Y-9457312D01*
X14108177Y-9457312D02*
X14108177Y-9438265D01*
X14108177Y-9438265D02*
X14117701Y-9419217D01*
X14117701Y-9419217D02*
X14136748Y-9409693D01*
X14136748Y-9409693D02*
X14184367Y-9409693D01*
X14184367Y-9409693D02*
X14203415Y-9400170D01*
X14298653Y-9352550D02*
X14298653Y-9552550D01*
X14298653Y-9362074D02*
X14317701Y-9352550D01*
X14317701Y-9352550D02*
X14355796Y-9352550D01*
X14355796Y-9352550D02*
X14374843Y-9362074D01*
X14374843Y-9362074D02*
X14384367Y-9371598D01*
X14384367Y-9371598D02*
X14393891Y-9390646D01*
X14393891Y-9390646D02*
X14393891Y-9447789D01*
X14393891Y-9447789D02*
X14384367Y-9466836D01*
X14384367Y-9466836D02*
X14374843Y-9476360D01*
X14374843Y-9476360D02*
X14355796Y-9485884D01*
X14355796Y-9485884D02*
X14317701Y-9485884D01*
X14317701Y-9485884D02*
X14298653Y-9476360D01*
X14479605Y-9466836D02*
X14489129Y-9476360D01*
X14489129Y-9476360D02*
X14479605Y-9485884D01*
X14479605Y-9485884D02*
X14470082Y-9476360D01*
X14470082Y-9476360D02*
X14479605Y-9466836D01*
X14479605Y-9466836D02*
X14479605Y-9485884D01*
X14479605Y-9362074D02*
X14489129Y-9371598D01*
X14489129Y-9371598D02*
X14479605Y-9381122D01*
X14479605Y-9381122D02*
X14470082Y-9371598D01*
X14470082Y-9371598D02*
X14479605Y-9362074D01*
X14479605Y-9362074D02*
X14479605Y-9381122D01*
D12*
X12832400Y-9806900D02*
X12847400Y-9821900D01*
X12847400Y-9806900D02*
X12832400Y-9821900D01*
D11*
X13146272Y-9705884D02*
X13165320Y-9705884D01*
X13165320Y-9705884D02*
X13184367Y-9715408D01*
X13184367Y-9715408D02*
X13193891Y-9724931D01*
X13193891Y-9724931D02*
X13203415Y-9743979D01*
X13203415Y-9743979D02*
X13212939Y-9782074D01*
X13212939Y-9782074D02*
X13212939Y-9829693D01*
X13212939Y-9829693D02*
X13203415Y-9867789D01*
X13203415Y-9867789D02*
X13193891Y-9886836D01*
X13193891Y-9886836D02*
X13184367Y-9896360D01*
X13184367Y-9896360D02*
X13165320Y-9905884D01*
X13165320Y-9905884D02*
X13146272Y-9905884D01*
X13146272Y-9905884D02*
X13127224Y-9896360D01*
X13127224Y-9896360D02*
X13117701Y-9886836D01*
X13117701Y-9886836D02*
X13108177Y-9867789D01*
X13108177Y-9867789D02*
X13098653Y-9829693D01*
X13098653Y-9829693D02*
X13098653Y-9782074D01*
X13098653Y-9782074D02*
X13108177Y-9743979D01*
X13108177Y-9743979D02*
X13117701Y-9724931D01*
X13117701Y-9724931D02*
X13127224Y-9715408D01*
X13127224Y-9715408D02*
X13146272Y-9705884D01*
X13298653Y-9886836D02*
X13308177Y-9896360D01*
X13308177Y-9896360D02*
X13298653Y-9905884D01*
X13298653Y-9905884D02*
X13289129Y-9896360D01*
X13289129Y-9896360D02*
X13298653Y-9886836D01*
X13298653Y-9886836D02*
X13298653Y-9905884D01*
X13498653Y-9905884D02*
X13384367Y-9905884D01*
X13441510Y-9905884D02*
X13441510Y-9705884D01*
X13441510Y-9705884D02*
X13422462Y-9734455D01*
X13422462Y-9734455D02*
X13403415Y-9753503D01*
X13403415Y-9753503D02*
X13384367Y-9763027D01*
X13679605Y-9705884D02*
X13584367Y-9705884D01*
X13584367Y-9705884D02*
X13574843Y-9801122D01*
X13574843Y-9801122D02*
X13584367Y-9791598D01*
X13584367Y-9791598D02*
X13603415Y-9782074D01*
X13603415Y-9782074D02*
X13651034Y-9782074D01*
X13651034Y-9782074D02*
X13670082Y-9791598D01*
X13670082Y-9791598D02*
X13679605Y-9801122D01*
X13679605Y-9801122D02*
X13689129Y-9820170D01*
X13689129Y-9820170D02*
X13689129Y-9867789D01*
X13689129Y-9867789D02*
X13679605Y-9886836D01*
X13679605Y-9886836D02*
X13670082Y-9896360D01*
X13670082Y-9896360D02*
X13651034Y-9905884D01*
X13651034Y-9905884D02*
X13603415Y-9905884D01*
X13603415Y-9905884D02*
X13584367Y-9896360D01*
X13584367Y-9896360D02*
X13574843Y-9886836D01*
X13812939Y-9705884D02*
X13831986Y-9705884D01*
X13831986Y-9705884D02*
X13851034Y-9715408D01*
X13851034Y-9715408D02*
X13860558Y-9724931D01*
X13860558Y-9724931D02*
X13870082Y-9743979D01*
X13870082Y-9743979D02*
X13879605Y-9782074D01*
X13879605Y-9782074D02*
X13879605Y-9829693D01*
X13879605Y-9829693D02*
X13870082Y-9867789D01*
X13870082Y-9867789D02*
X13860558Y-9886836D01*
X13860558Y-9886836D02*
X13851034Y-9896360D01*
X13851034Y-9896360D02*
X13831986Y-9905884D01*
X13831986Y-9905884D02*
X13812939Y-9905884D01*
X13812939Y-9905884D02*
X13793891Y-9896360D01*
X13793891Y-9896360D02*
X13784367Y-9886836D01*
X13784367Y-9886836D02*
X13774843Y-9867789D01*
X13774843Y-9867789D02*
X13765320Y-9829693D01*
X13765320Y-9829693D02*
X13765320Y-9782074D01*
X13765320Y-9782074D02*
X13774843Y-9743979D01*
X13774843Y-9743979D02*
X13784367Y-9724931D01*
X13784367Y-9724931D02*
X13793891Y-9715408D01*
X13793891Y-9715408D02*
X13812939Y-9705884D01*
X13965320Y-9905884D02*
X13965320Y-9772550D01*
X13965320Y-9791598D02*
X13974843Y-9782074D01*
X13974843Y-9782074D02*
X13993891Y-9772550D01*
X13993891Y-9772550D02*
X14022463Y-9772550D01*
X14022463Y-9772550D02*
X14041510Y-9782074D01*
X14041510Y-9782074D02*
X14051034Y-9801122D01*
X14051034Y-9801122D02*
X14051034Y-9905884D01*
X14051034Y-9801122D02*
X14060558Y-9782074D01*
X14060558Y-9782074D02*
X14079605Y-9772550D01*
X14079605Y-9772550D02*
X14108177Y-9772550D01*
X14108177Y-9772550D02*
X14127224Y-9782074D01*
X14127224Y-9782074D02*
X14136748Y-9801122D01*
X14136748Y-9801122D02*
X14136748Y-9905884D01*
X14231986Y-9905884D02*
X14231986Y-9772550D01*
X14231986Y-9791598D02*
X14241510Y-9782074D01*
X14241510Y-9782074D02*
X14260558Y-9772550D01*
X14260558Y-9772550D02*
X14289129Y-9772550D01*
X14289129Y-9772550D02*
X14308177Y-9782074D01*
X14308177Y-9782074D02*
X14317701Y-9801122D01*
X14317701Y-9801122D02*
X14317701Y-9905884D01*
X14317701Y-9801122D02*
X14327224Y-9782074D01*
X14327224Y-9782074D02*
X14346272Y-9772550D01*
X14346272Y-9772550D02*
X14374843Y-9772550D01*
X14374843Y-9772550D02*
X14393891Y-9782074D01*
X14393891Y-9782074D02*
X14403415Y-9801122D01*
X14403415Y-9801122D02*
X14403415Y-9905884D01*
X14793891Y-9696360D02*
X14622463Y-9953503D01*
X15051034Y-9705884D02*
X15070082Y-9705884D01*
X15070082Y-9705884D02*
X15089129Y-9715408D01*
X15089129Y-9715408D02*
X15098653Y-9724931D01*
X15098653Y-9724931D02*
X15108177Y-9743979D01*
X15108177Y-9743979D02*
X15117701Y-9782074D01*
X15117701Y-9782074D02*
X15117701Y-9829693D01*
X15117701Y-9829693D02*
X15108177Y-9867789D01*
X15108177Y-9867789D02*
X15098653Y-9886836D01*
X15098653Y-9886836D02*
X15089129Y-9896360D01*
X15089129Y-9896360D02*
X15070082Y-9905884D01*
X15070082Y-9905884D02*
X15051034Y-9905884D01*
X15051034Y-9905884D02*
X15031986Y-9896360D01*
X15031986Y-9896360D02*
X15022463Y-9886836D01*
X15022463Y-9886836D02*
X15012939Y-9867789D01*
X15012939Y-9867789D02*
X15003415Y-9829693D01*
X15003415Y-9829693D02*
X15003415Y-9782074D01*
X15003415Y-9782074D02*
X15012939Y-9743979D01*
X15012939Y-9743979D02*
X15022463Y-9724931D01*
X15022463Y-9724931D02*
X15031986Y-9715408D01*
X15031986Y-9715408D02*
X15051034Y-9705884D01*
X15203415Y-9886836D02*
X15212939Y-9896360D01*
X15212939Y-9896360D02*
X15203415Y-9905884D01*
X15203415Y-9905884D02*
X15193891Y-9896360D01*
X15193891Y-9896360D02*
X15203415Y-9886836D01*
X15203415Y-9886836D02*
X15203415Y-9905884D01*
X15336748Y-9705884D02*
X15355796Y-9705884D01*
X15355796Y-9705884D02*
X15374844Y-9715408D01*
X15374844Y-9715408D02*
X15384367Y-9724931D01*
X15384367Y-9724931D02*
X15393891Y-9743979D01*
X15393891Y-9743979D02*
X15403415Y-9782074D01*
X15403415Y-9782074D02*
X15403415Y-9829693D01*
X15403415Y-9829693D02*
X15393891Y-9867789D01*
X15393891Y-9867789D02*
X15384367Y-9886836D01*
X15384367Y-9886836D02*
X15374844Y-9896360D01*
X15374844Y-9896360D02*
X15355796Y-9905884D01*
X15355796Y-9905884D02*
X15336748Y-9905884D01*
X15336748Y-9905884D02*
X15317701Y-9896360D01*
X15317701Y-9896360D02*
X15308177Y-9886836D01*
X15308177Y-9886836D02*
X15298653Y-9867789D01*
X15298653Y-9867789D02*
X15289129Y-9829693D01*
X15289129Y-9829693D02*
X15289129Y-9782074D01*
X15289129Y-9782074D02*
X15298653Y-9743979D01*
X15298653Y-9743979D02*
X15308177Y-9724931D01*
X15308177Y-9724931D02*
X15317701Y-9715408D01*
X15317701Y-9715408D02*
X15336748Y-9705884D01*
X15527225Y-9705884D02*
X15546272Y-9705884D01*
X15546272Y-9705884D02*
X15565320Y-9715408D01*
X15565320Y-9715408D02*
X15574844Y-9724931D01*
X15574844Y-9724931D02*
X15584367Y-9743979D01*
X15584367Y-9743979D02*
X15593891Y-9782074D01*
X15593891Y-9782074D02*
X15593891Y-9829693D01*
X15593891Y-9829693D02*
X15584367Y-9867789D01*
X15584367Y-9867789D02*
X15574844Y-9886836D01*
X15574844Y-9886836D02*
X15565320Y-9896360D01*
X15565320Y-9896360D02*
X15546272Y-9905884D01*
X15546272Y-9905884D02*
X15527225Y-9905884D01*
X15527225Y-9905884D02*
X15508177Y-9896360D01*
X15508177Y-9896360D02*
X15498653Y-9886836D01*
X15498653Y-9886836D02*
X15489129Y-9867789D01*
X15489129Y-9867789D02*
X15479606Y-9829693D01*
X15479606Y-9829693D02*
X15479606Y-9782074D01*
X15479606Y-9782074D02*
X15489129Y-9743979D01*
X15489129Y-9743979D02*
X15498653Y-9724931D01*
X15498653Y-9724931D02*
X15508177Y-9715408D01*
X15508177Y-9715408D02*
X15527225Y-9705884D01*
X15774844Y-9705884D02*
X15679606Y-9705884D01*
X15679606Y-9705884D02*
X15670082Y-9801122D01*
X15670082Y-9801122D02*
X15679606Y-9791598D01*
X15679606Y-9791598D02*
X15698653Y-9782074D01*
X15698653Y-9782074D02*
X15746272Y-9782074D01*
X15746272Y-9782074D02*
X15765320Y-9791598D01*
X15765320Y-9791598D02*
X15774844Y-9801122D01*
X15774844Y-9801122D02*
X15784367Y-9820170D01*
X15784367Y-9820170D02*
X15784367Y-9867789D01*
X15784367Y-9867789D02*
X15774844Y-9886836D01*
X15774844Y-9886836D02*
X15765320Y-9896360D01*
X15765320Y-9896360D02*
X15746272Y-9905884D01*
X15746272Y-9905884D02*
X15698653Y-9905884D01*
X15698653Y-9905884D02*
X15679606Y-9896360D01*
X15679606Y-9896360D02*
X15670082Y-9886836D01*
X15879606Y-9905884D02*
X15917701Y-9905884D01*
X15917701Y-9905884D02*
X15936748Y-9896360D01*
X15936748Y-9896360D02*
X15946272Y-9886836D01*
X15946272Y-9886836D02*
X15965320Y-9858265D01*
X15965320Y-9858265D02*
X15974844Y-9820170D01*
X15974844Y-9820170D02*
X15974844Y-9743979D01*
X15974844Y-9743979D02*
X15965320Y-9724931D01*
X15965320Y-9724931D02*
X15955796Y-9715408D01*
X15955796Y-9715408D02*
X15936748Y-9705884D01*
X15936748Y-9705884D02*
X15898653Y-9705884D01*
X15898653Y-9705884D02*
X15879606Y-9715408D01*
X15879606Y-9715408D02*
X15870082Y-9724931D01*
X15870082Y-9724931D02*
X15860558Y-9743979D01*
X15860558Y-9743979D02*
X15860558Y-9791598D01*
X15860558Y-9791598D02*
X15870082Y-9810646D01*
X15870082Y-9810646D02*
X15879606Y-9820170D01*
X15879606Y-9820170D02*
X15898653Y-9829693D01*
X15898653Y-9829693D02*
X15936748Y-9829693D01*
X15936748Y-9829693D02*
X15955796Y-9820170D01*
X15955796Y-9820170D02*
X15965320Y-9810646D01*
X15965320Y-9810646D02*
X15974844Y-9791598D01*
X16051034Y-9705884D02*
X16051034Y-9743979D01*
X16127225Y-9705884D02*
X16127225Y-9743979D01*
X16422463Y-9982074D02*
X16412939Y-9972550D01*
X16412939Y-9972550D02*
X16393891Y-9943979D01*
X16393891Y-9943979D02*
X16384368Y-9924931D01*
X16384368Y-9924931D02*
X16374844Y-9896360D01*
X16374844Y-9896360D02*
X16365320Y-9848741D01*
X16365320Y-9848741D02*
X16365320Y-9810646D01*
X16365320Y-9810646D02*
X16374844Y-9763027D01*
X16374844Y-9763027D02*
X16384368Y-9734455D01*
X16384368Y-9734455D02*
X16393891Y-9715408D01*
X16393891Y-9715408D02*
X16412939Y-9686836D01*
X16412939Y-9686836D02*
X16422463Y-9677312D01*
X16479606Y-9705884D02*
X16603415Y-9705884D01*
X16603415Y-9705884D02*
X16536748Y-9782074D01*
X16536748Y-9782074D02*
X16565320Y-9782074D01*
X16565320Y-9782074D02*
X16584368Y-9791598D01*
X16584368Y-9791598D02*
X16593891Y-9801122D01*
X16593891Y-9801122D02*
X16603415Y-9820170D01*
X16603415Y-9820170D02*
X16603415Y-9867789D01*
X16603415Y-9867789D02*
X16593891Y-9886836D01*
X16593891Y-9886836D02*
X16584368Y-9896360D01*
X16584368Y-9896360D02*
X16565320Y-9905884D01*
X16565320Y-9905884D02*
X16508177Y-9905884D01*
X16508177Y-9905884D02*
X16489129Y-9896360D01*
X16489129Y-9896360D02*
X16479606Y-9886836D01*
X16679606Y-9724931D02*
X16689129Y-9715408D01*
X16689129Y-9715408D02*
X16708177Y-9705884D01*
X16708177Y-9705884D02*
X16755796Y-9705884D01*
X16755796Y-9705884D02*
X16774844Y-9715408D01*
X16774844Y-9715408D02*
X16784368Y-9724931D01*
X16784368Y-9724931D02*
X16793891Y-9743979D01*
X16793891Y-9743979D02*
X16793891Y-9763027D01*
X16793891Y-9763027D02*
X16784368Y-9791598D01*
X16784368Y-9791598D02*
X16670082Y-9905884D01*
X16670082Y-9905884D02*
X16793891Y-9905884D01*
X17031987Y-9905884D02*
X17031987Y-9705884D01*
X17117701Y-9905884D02*
X17117701Y-9801122D01*
X17117701Y-9801122D02*
X17108177Y-9782074D01*
X17108177Y-9782074D02*
X17089130Y-9772550D01*
X17089130Y-9772550D02*
X17060558Y-9772550D01*
X17060558Y-9772550D02*
X17041511Y-9782074D01*
X17041511Y-9782074D02*
X17031987Y-9791598D01*
X17241511Y-9905884D02*
X17222463Y-9896360D01*
X17222463Y-9896360D02*
X17212939Y-9886836D01*
X17212939Y-9886836D02*
X17203415Y-9867789D01*
X17203415Y-9867789D02*
X17203415Y-9810646D01*
X17203415Y-9810646D02*
X17212939Y-9791598D01*
X17212939Y-9791598D02*
X17222463Y-9782074D01*
X17222463Y-9782074D02*
X17241511Y-9772550D01*
X17241511Y-9772550D02*
X17270082Y-9772550D01*
X17270082Y-9772550D02*
X17289130Y-9782074D01*
X17289130Y-9782074D02*
X17298653Y-9791598D01*
X17298653Y-9791598D02*
X17308177Y-9810646D01*
X17308177Y-9810646D02*
X17308177Y-9867789D01*
X17308177Y-9867789D02*
X17298653Y-9886836D01*
X17298653Y-9886836D02*
X17289130Y-9896360D01*
X17289130Y-9896360D02*
X17270082Y-9905884D01*
X17270082Y-9905884D02*
X17241511Y-9905884D01*
X17422463Y-9905884D02*
X17403415Y-9896360D01*
X17403415Y-9896360D02*
X17393892Y-9877312D01*
X17393892Y-9877312D02*
X17393892Y-9705884D01*
X17574844Y-9896360D02*
X17555796Y-9905884D01*
X17555796Y-9905884D02*
X17517701Y-9905884D01*
X17517701Y-9905884D02*
X17498653Y-9896360D01*
X17498653Y-9896360D02*
X17489130Y-9877312D01*
X17489130Y-9877312D02*
X17489130Y-9801122D01*
X17489130Y-9801122D02*
X17498653Y-9782074D01*
X17498653Y-9782074D02*
X17517701Y-9772550D01*
X17517701Y-9772550D02*
X17555796Y-9772550D01*
X17555796Y-9772550D02*
X17574844Y-9782074D01*
X17574844Y-9782074D02*
X17584368Y-9801122D01*
X17584368Y-9801122D02*
X17584368Y-9820170D01*
X17584368Y-9820170D02*
X17489130Y-9839217D01*
X17660558Y-9896360D02*
X17679606Y-9905884D01*
X17679606Y-9905884D02*
X17717701Y-9905884D01*
X17717701Y-9905884D02*
X17736749Y-9896360D01*
X17736749Y-9896360D02*
X17746273Y-9877312D01*
X17746273Y-9877312D02*
X17746273Y-9867789D01*
X17746273Y-9867789D02*
X17736749Y-9848741D01*
X17736749Y-9848741D02*
X17717701Y-9839217D01*
X17717701Y-9839217D02*
X17689130Y-9839217D01*
X17689130Y-9839217D02*
X17670082Y-9829693D01*
X17670082Y-9829693D02*
X17660558Y-9810646D01*
X17660558Y-9810646D02*
X17660558Y-9801122D01*
X17660558Y-9801122D02*
X17670082Y-9782074D01*
X17670082Y-9782074D02*
X17689130Y-9772550D01*
X17689130Y-9772550D02*
X17717701Y-9772550D01*
X17717701Y-9772550D02*
X17736749Y-9782074D01*
X17812939Y-9982074D02*
X17822463Y-9972550D01*
X17822463Y-9972550D02*
X17841511Y-9943979D01*
X17841511Y-9943979D02*
X17851034Y-9924931D01*
X17851034Y-9924931D02*
X17860558Y-9896360D01*
X17860558Y-9896360D02*
X17870082Y-9848741D01*
X17870082Y-9848741D02*
X17870082Y-9810646D01*
X17870082Y-9810646D02*
X17860558Y-9763027D01*
X17860558Y-9763027D02*
X17851034Y-9734455D01*
X17851034Y-9734455D02*
X17841511Y-9715408D01*
X17841511Y-9715408D02*
X17822463Y-9686836D01*
X17822463Y-9686836D02*
X17812939Y-9677312D01*
D10*
X12847400Y-10078400D02*
G75*
G03*
X12847400Y-10078400I-50000J0D01*
G01*
D11*
X13212939Y-10169884D02*
X13098653Y-10169884D01*
X13155796Y-10169884D02*
X13155796Y-9969884D01*
X13155796Y-9969884D02*
X13136748Y-9998455D01*
X13136748Y-9998455D02*
X13117701Y-10017503D01*
X13117701Y-10017503D02*
X13098653Y-10027027D01*
X13298653Y-10150836D02*
X13308177Y-10160360D01*
X13308177Y-10160360D02*
X13298653Y-10169884D01*
X13298653Y-10169884D02*
X13289129Y-10160360D01*
X13289129Y-10160360D02*
X13298653Y-10150836D01*
X13298653Y-10150836D02*
X13298653Y-10169884D01*
X13431986Y-9969884D02*
X13451034Y-9969884D01*
X13451034Y-9969884D02*
X13470082Y-9979408D01*
X13470082Y-9979408D02*
X13479605Y-9988931D01*
X13479605Y-9988931D02*
X13489129Y-10007979D01*
X13489129Y-10007979D02*
X13498653Y-10046074D01*
X13498653Y-10046074D02*
X13498653Y-10093693D01*
X13498653Y-10093693D02*
X13489129Y-10131789D01*
X13489129Y-10131789D02*
X13479605Y-10150836D01*
X13479605Y-10150836D02*
X13470082Y-10160360D01*
X13470082Y-10160360D02*
X13451034Y-10169884D01*
X13451034Y-10169884D02*
X13431986Y-10169884D01*
X13431986Y-10169884D02*
X13412939Y-10160360D01*
X13412939Y-10160360D02*
X13403415Y-10150836D01*
X13403415Y-10150836D02*
X13393891Y-10131789D01*
X13393891Y-10131789D02*
X13384367Y-10093693D01*
X13384367Y-10093693D02*
X13384367Y-10046074D01*
X13384367Y-10046074D02*
X13393891Y-10007979D01*
X13393891Y-10007979D02*
X13403415Y-9988931D01*
X13403415Y-9988931D02*
X13412939Y-9979408D01*
X13412939Y-9979408D02*
X13431986Y-9969884D01*
X13622462Y-9969884D02*
X13641510Y-9969884D01*
X13641510Y-9969884D02*
X13660558Y-9979408D01*
X13660558Y-9979408D02*
X13670082Y-9988931D01*
X13670082Y-9988931D02*
X13679605Y-10007979D01*
X13679605Y-10007979D02*
X13689129Y-10046074D01*
X13689129Y-10046074D02*
X13689129Y-10093693D01*
X13689129Y-10093693D02*
X13679605Y-10131789D01*
X13679605Y-10131789D02*
X13670082Y-10150836D01*
X13670082Y-10150836D02*
X13660558Y-10160360D01*
X13660558Y-10160360D02*
X13641510Y-10169884D01*
X13641510Y-10169884D02*
X13622462Y-10169884D01*
X13622462Y-10169884D02*
X13603415Y-10160360D01*
X13603415Y-10160360D02*
X13593891Y-10150836D01*
X13593891Y-10150836D02*
X13584367Y-10131789D01*
X13584367Y-10131789D02*
X13574843Y-10093693D01*
X13574843Y-10093693D02*
X13574843Y-10046074D01*
X13574843Y-10046074D02*
X13584367Y-10007979D01*
X13584367Y-10007979D02*
X13593891Y-9988931D01*
X13593891Y-9988931D02*
X13603415Y-9979408D01*
X13603415Y-9979408D02*
X13622462Y-9969884D01*
X13812939Y-9969884D02*
X13831986Y-9969884D01*
X13831986Y-9969884D02*
X13851034Y-9979408D01*
X13851034Y-9979408D02*
X13860558Y-9988931D01*
X13860558Y-9988931D02*
X13870082Y-10007979D01*
X13870082Y-10007979D02*
X13879605Y-10046074D01*
X13879605Y-10046074D02*
X13879605Y-10093693D01*
X13879605Y-10093693D02*
X13870082Y-10131789D01*
X13870082Y-10131789D02*
X13860558Y-10150836D01*
X13860558Y-10150836D02*
X13851034Y-10160360D01*
X13851034Y-10160360D02*
X13831986Y-10169884D01*
X13831986Y-10169884D02*
X13812939Y-10169884D01*
X13812939Y-10169884D02*
X13793891Y-10160360D01*
X13793891Y-10160360D02*
X13784367Y-10150836D01*
X13784367Y-10150836D02*
X13774843Y-10131789D01*
X13774843Y-10131789D02*
X13765320Y-10093693D01*
X13765320Y-10093693D02*
X13765320Y-10046074D01*
X13765320Y-10046074D02*
X13774843Y-10007979D01*
X13774843Y-10007979D02*
X13784367Y-9988931D01*
X13784367Y-9988931D02*
X13793891Y-9979408D01*
X13793891Y-9979408D02*
X13812939Y-9969884D01*
X13965320Y-10169884D02*
X13965320Y-10036550D01*
X13965320Y-10055598D02*
X13974843Y-10046074D01*
X13974843Y-10046074D02*
X13993891Y-10036550D01*
X13993891Y-10036550D02*
X14022463Y-10036550D01*
X14022463Y-10036550D02*
X14041510Y-10046074D01*
X14041510Y-10046074D02*
X14051034Y-10065122D01*
X14051034Y-10065122D02*
X14051034Y-10169884D01*
X14051034Y-10065122D02*
X14060558Y-10046074D01*
X14060558Y-10046074D02*
X14079605Y-10036550D01*
X14079605Y-10036550D02*
X14108177Y-10036550D01*
X14108177Y-10036550D02*
X14127224Y-10046074D01*
X14127224Y-10046074D02*
X14136748Y-10065122D01*
X14136748Y-10065122D02*
X14136748Y-10169884D01*
X14231986Y-10169884D02*
X14231986Y-10036550D01*
X14231986Y-10055598D02*
X14241510Y-10046074D01*
X14241510Y-10046074D02*
X14260558Y-10036550D01*
X14260558Y-10036550D02*
X14289129Y-10036550D01*
X14289129Y-10036550D02*
X14308177Y-10046074D01*
X14308177Y-10046074D02*
X14317701Y-10065122D01*
X14317701Y-10065122D02*
X14317701Y-10169884D01*
X14317701Y-10065122D02*
X14327224Y-10046074D01*
X14327224Y-10046074D02*
X14346272Y-10036550D01*
X14346272Y-10036550D02*
X14374843Y-10036550D01*
X14374843Y-10036550D02*
X14393891Y-10046074D01*
X14393891Y-10046074D02*
X14403415Y-10065122D01*
X14403415Y-10065122D02*
X14403415Y-10169884D01*
X14793891Y-9960360D02*
X14622463Y-10217503D01*
X15051034Y-9969884D02*
X15070082Y-9969884D01*
X15070082Y-9969884D02*
X15089129Y-9979408D01*
X15089129Y-9979408D02*
X15098653Y-9988931D01*
X15098653Y-9988931D02*
X15108177Y-10007979D01*
X15108177Y-10007979D02*
X15117701Y-10046074D01*
X15117701Y-10046074D02*
X15117701Y-10093693D01*
X15117701Y-10093693D02*
X15108177Y-10131789D01*
X15108177Y-10131789D02*
X15098653Y-10150836D01*
X15098653Y-10150836D02*
X15089129Y-10160360D01*
X15089129Y-10160360D02*
X15070082Y-10169884D01*
X15070082Y-10169884D02*
X15051034Y-10169884D01*
X15051034Y-10169884D02*
X15031986Y-10160360D01*
X15031986Y-10160360D02*
X15022463Y-10150836D01*
X15022463Y-10150836D02*
X15012939Y-10131789D01*
X15012939Y-10131789D02*
X15003415Y-10093693D01*
X15003415Y-10093693D02*
X15003415Y-10046074D01*
X15003415Y-10046074D02*
X15012939Y-10007979D01*
X15012939Y-10007979D02*
X15022463Y-9988931D01*
X15022463Y-9988931D02*
X15031986Y-9979408D01*
X15031986Y-9979408D02*
X15051034Y-9969884D01*
X15203415Y-10150836D02*
X15212939Y-10160360D01*
X15212939Y-10160360D02*
X15203415Y-10169884D01*
X15203415Y-10169884D02*
X15193891Y-10160360D01*
X15193891Y-10160360D02*
X15203415Y-10150836D01*
X15203415Y-10150836D02*
X15203415Y-10169884D01*
X15336748Y-9969884D02*
X15355796Y-9969884D01*
X15355796Y-9969884D02*
X15374844Y-9979408D01*
X15374844Y-9979408D02*
X15384367Y-9988931D01*
X15384367Y-9988931D02*
X15393891Y-10007979D01*
X15393891Y-10007979D02*
X15403415Y-10046074D01*
X15403415Y-10046074D02*
X15403415Y-10093693D01*
X15403415Y-10093693D02*
X15393891Y-10131789D01*
X15393891Y-10131789D02*
X15384367Y-10150836D01*
X15384367Y-10150836D02*
X15374844Y-10160360D01*
X15374844Y-10160360D02*
X15355796Y-10169884D01*
X15355796Y-10169884D02*
X15336748Y-10169884D01*
X15336748Y-10169884D02*
X15317701Y-10160360D01*
X15317701Y-10160360D02*
X15308177Y-10150836D01*
X15308177Y-10150836D02*
X15298653Y-10131789D01*
X15298653Y-10131789D02*
X15289129Y-10093693D01*
X15289129Y-10093693D02*
X15289129Y-10046074D01*
X15289129Y-10046074D02*
X15298653Y-10007979D01*
X15298653Y-10007979D02*
X15308177Y-9988931D01*
X15308177Y-9988931D02*
X15317701Y-9979408D01*
X15317701Y-9979408D02*
X15336748Y-9969884D01*
X15470082Y-9969884D02*
X15593891Y-9969884D01*
X15593891Y-9969884D02*
X15527225Y-10046074D01*
X15527225Y-10046074D02*
X15555796Y-10046074D01*
X15555796Y-10046074D02*
X15574844Y-10055598D01*
X15574844Y-10055598D02*
X15584367Y-10065122D01*
X15584367Y-10065122D02*
X15593891Y-10084170D01*
X15593891Y-10084170D02*
X15593891Y-10131789D01*
X15593891Y-10131789D02*
X15584367Y-10150836D01*
X15584367Y-10150836D02*
X15574844Y-10160360D01*
X15574844Y-10160360D02*
X15555796Y-10169884D01*
X15555796Y-10169884D02*
X15498653Y-10169884D01*
X15498653Y-10169884D02*
X15479606Y-10160360D01*
X15479606Y-10160360D02*
X15470082Y-10150836D01*
X15689129Y-10169884D02*
X15727225Y-10169884D01*
X15727225Y-10169884D02*
X15746272Y-10160360D01*
X15746272Y-10160360D02*
X15755796Y-10150836D01*
X15755796Y-10150836D02*
X15774844Y-10122265D01*
X15774844Y-10122265D02*
X15784367Y-10084170D01*
X15784367Y-10084170D02*
X15784367Y-10007979D01*
X15784367Y-10007979D02*
X15774844Y-9988931D01*
X15774844Y-9988931D02*
X15765320Y-9979408D01*
X15765320Y-9979408D02*
X15746272Y-9969884D01*
X15746272Y-9969884D02*
X15708177Y-9969884D01*
X15708177Y-9969884D02*
X15689129Y-9979408D01*
X15689129Y-9979408D02*
X15679606Y-9988931D01*
X15679606Y-9988931D02*
X15670082Y-10007979D01*
X15670082Y-10007979D02*
X15670082Y-10055598D01*
X15670082Y-10055598D02*
X15679606Y-10074646D01*
X15679606Y-10074646D02*
X15689129Y-10084170D01*
X15689129Y-10084170D02*
X15708177Y-10093693D01*
X15708177Y-10093693D02*
X15746272Y-10093693D01*
X15746272Y-10093693D02*
X15765320Y-10084170D01*
X15765320Y-10084170D02*
X15774844Y-10074646D01*
X15774844Y-10074646D02*
X15784367Y-10055598D01*
X15955796Y-10036550D02*
X15955796Y-10169884D01*
X15908177Y-9960360D02*
X15860558Y-10103217D01*
X15860558Y-10103217D02*
X15984367Y-10103217D01*
X16051034Y-9969884D02*
X16051034Y-10007979D01*
X16127225Y-9969884D02*
X16127225Y-10007979D01*
X16422463Y-10246074D02*
X16412939Y-10236550D01*
X16412939Y-10236550D02*
X16393891Y-10207979D01*
X16393891Y-10207979D02*
X16384368Y-10188931D01*
X16384368Y-10188931D02*
X16374844Y-10160360D01*
X16374844Y-10160360D02*
X16365320Y-10112741D01*
X16365320Y-10112741D02*
X16365320Y-10074646D01*
X16365320Y-10074646D02*
X16374844Y-10027027D01*
X16374844Y-10027027D02*
X16384368Y-9998455D01*
X16384368Y-9998455D02*
X16393891Y-9979408D01*
X16393891Y-9979408D02*
X16412939Y-9950836D01*
X16412939Y-9950836D02*
X16422463Y-9941312D01*
X16584368Y-10036550D02*
X16584368Y-10169884D01*
X16536748Y-9960360D02*
X16489129Y-10103217D01*
X16489129Y-10103217D02*
X16612939Y-10103217D01*
X16727225Y-9969884D02*
X16746272Y-9969884D01*
X16746272Y-9969884D02*
X16765320Y-9979408D01*
X16765320Y-9979408D02*
X16774844Y-9988931D01*
X16774844Y-9988931D02*
X16784368Y-10007979D01*
X16784368Y-10007979D02*
X16793891Y-10046074D01*
X16793891Y-10046074D02*
X16793891Y-10093693D01*
X16793891Y-10093693D02*
X16784368Y-10131789D01*
X16784368Y-10131789D02*
X16774844Y-10150836D01*
X16774844Y-10150836D02*
X16765320Y-10160360D01*
X16765320Y-10160360D02*
X16746272Y-10169884D01*
X16746272Y-10169884D02*
X16727225Y-10169884D01*
X16727225Y-10169884D02*
X16708177Y-10160360D01*
X16708177Y-10160360D02*
X16698653Y-10150836D01*
X16698653Y-10150836D02*
X16689129Y-10131789D01*
X16689129Y-10131789D02*
X16679606Y-10093693D01*
X16679606Y-10093693D02*
X16679606Y-10046074D01*
X16679606Y-10046074D02*
X16689129Y-10007979D01*
X16689129Y-10007979D02*
X16698653Y-9988931D01*
X16698653Y-9988931D02*
X16708177Y-9979408D01*
X16708177Y-9979408D02*
X16727225Y-9969884D01*
X17031987Y-10169884D02*
X17031987Y-9969884D01*
X17117701Y-10169884D02*
X17117701Y-10065122D01*
X17117701Y-10065122D02*
X17108177Y-10046074D01*
X17108177Y-10046074D02*
X17089130Y-10036550D01*
X17089130Y-10036550D02*
X17060558Y-10036550D01*
X17060558Y-10036550D02*
X17041511Y-10046074D01*
X17041511Y-10046074D02*
X17031987Y-10055598D01*
X17241511Y-10169884D02*
X17222463Y-10160360D01*
X17222463Y-10160360D02*
X17212939Y-10150836D01*
X17212939Y-10150836D02*
X17203415Y-10131789D01*
X17203415Y-10131789D02*
X17203415Y-10074646D01*
X17203415Y-10074646D02*
X17212939Y-10055598D01*
X17212939Y-10055598D02*
X17222463Y-10046074D01*
X17222463Y-10046074D02*
X17241511Y-10036550D01*
X17241511Y-10036550D02*
X17270082Y-10036550D01*
X17270082Y-10036550D02*
X17289130Y-10046074D01*
X17289130Y-10046074D02*
X17298653Y-10055598D01*
X17298653Y-10055598D02*
X17308177Y-10074646D01*
X17308177Y-10074646D02*
X17308177Y-10131789D01*
X17308177Y-10131789D02*
X17298653Y-10150836D01*
X17298653Y-10150836D02*
X17289130Y-10160360D01*
X17289130Y-10160360D02*
X17270082Y-10169884D01*
X17270082Y-10169884D02*
X17241511Y-10169884D01*
X17422463Y-10169884D02*
X17403415Y-10160360D01*
X17403415Y-10160360D02*
X17393892Y-10141312D01*
X17393892Y-10141312D02*
X17393892Y-9969884D01*
X17574844Y-10160360D02*
X17555796Y-10169884D01*
X17555796Y-10169884D02*
X17517701Y-10169884D01*
X17517701Y-10169884D02*
X17498653Y-10160360D01*
X17498653Y-10160360D02*
X17489130Y-10141312D01*
X17489130Y-10141312D02*
X17489130Y-10065122D01*
X17489130Y-10065122D02*
X17498653Y-10046074D01*
X17498653Y-10046074D02*
X17517701Y-10036550D01*
X17517701Y-10036550D02*
X17555796Y-10036550D01*
X17555796Y-10036550D02*
X17574844Y-10046074D01*
X17574844Y-10046074D02*
X17584368Y-10065122D01*
X17584368Y-10065122D02*
X17584368Y-10084170D01*
X17584368Y-10084170D02*
X17489130Y-10103217D01*
X17660558Y-10160360D02*
X17679606Y-10169884D01*
X17679606Y-10169884D02*
X17717701Y-10169884D01*
X17717701Y-10169884D02*
X17736749Y-10160360D01*
X17736749Y-10160360D02*
X17746273Y-10141312D01*
X17746273Y-10141312D02*
X17746273Y-10131789D01*
X17746273Y-10131789D02*
X17736749Y-10112741D01*
X17736749Y-10112741D02*
X17717701Y-10103217D01*
X17717701Y-10103217D02*
X17689130Y-10103217D01*
X17689130Y-10103217D02*
X17670082Y-10093693D01*
X17670082Y-10093693D02*
X17660558Y-10074646D01*
X17660558Y-10074646D02*
X17660558Y-10065122D01*
X17660558Y-10065122D02*
X17670082Y-10046074D01*
X17670082Y-10046074D02*
X17689130Y-10036550D01*
X17689130Y-10036550D02*
X17717701Y-10036550D01*
X17717701Y-10036550D02*
X17736749Y-10046074D01*
X17812939Y-10246074D02*
X17822463Y-10236550D01*
X17822463Y-10236550D02*
X17841511Y-10207979D01*
X17841511Y-10207979D02*
X17851034Y-10188931D01*
X17851034Y-10188931D02*
X17860558Y-10160360D01*
X17860558Y-10160360D02*
X17870082Y-10112741D01*
X17870082Y-10112741D02*
X17870082Y-10074646D01*
X17870082Y-10074646D02*
X17860558Y-10027027D01*
X17860558Y-10027027D02*
X17851034Y-9998455D01*
X17851034Y-9998455D02*
X17841511Y-9979408D01*
X17841511Y-9979408D02*
X17822463Y-9950836D01*
X17822463Y-9950836D02*
X17812939Y-9941312D01*
M02*
